<svg width="33" height="32" viewBox="0 0 33 32" fill="none" xmlns="http://www.w3.org/2000/svg">
<path d="M23.2843 30.7647H5.35633V11.4118L15.9071 2.35299L26.3754 11.173C26.3754 11.173 26.3754 11.1936 26.3754 11.2059V14.9118C26.3754 15.0756 26.4405 15.2327 26.5565 15.3485C26.6724 15.4644 26.8296 15.5294 26.9936 15.5294C27.1576 15.5294 27.3148 15.4644 27.4307 15.3485C27.5467 15.2327 27.6118 15.0756 27.6118 14.9118V12.2106L31.1273 15.1753C31.2525 15.2812 31.4146 15.3332 31.5781 15.3197C31.7416 15.3061 31.893 15.2283 31.999 15.1033C32.105 14.9782 32.157 14.8162 32.1435 14.6529C32.13 14.4896 32.052 14.3383 31.9269 14.2324L16.3027 1.05593C16.1907 0.960238 16.0482 0.907654 15.9009 0.907654C15.7535 0.907654 15.611 0.960238 15.4991 1.05593L0.212847 14.1912C0.0882388 14.3004 0.012155 14.4546 0.00133428 14.6198C-0.00948644 14.7851 0.0458421 14.9479 0.155148 15.0724C0.264454 15.1969 0.418784 15.2729 0.584186 15.2837C0.749589 15.2945 0.912515 15.2392 1.03712 15.13L4.11992 12.4659V31.3823C4.11992 31.5462 4.18505 31.7033 4.30099 31.8191C4.41692 31.9349 4.57417 32 4.73813 32H23.2843C23.4483 32 23.6056 31.9349 23.7215 31.8191C23.8374 31.7033 23.9026 31.5462 23.9026 31.3823C23.9026 31.2185 23.8374 31.0614 23.7215 30.9456C23.6056 30.8298 23.4483 30.7647 23.2843 30.7647Z" fill="#007198"/>
</svg>
